<svg width="35" height="49" viewBox="0 0 35 49" fill="none" xmlns="http://www.w3.org/2000/svg">
<path d="M15.614 0.0857867C11.6108 0.632942 8.24274 2.99137 6.41436 6.53845C4.2203 10.7836 5.10562 14.3873 8.78163 16.3684C11.1297 17.6136 15.8065 18.2363 19.9444 17.8589C22.7736 17.5948 24.2363 17.2551 25.8722 16.5005C29.0478 15.0288 30.2796 12.5572 29.5482 9.14215C28.6437 4.93472 25.2371 1.44424 20.9644 0.387666C19.521 0.0291844 17.0767 -0.102888 15.614 0.0857867ZM20.5795 2.27441C23.3125 3.02911 25.622 4.87811 26.8153 7.27428C29.6252 12.9534 26.3919 15.9722 17.5001 15.9722C12.8041 15.9722 10.0711 15.2741 8.4352 13.6703C7.33817 12.5949 7.03023 11.5761 7.31893 9.82138C7.76159 7.12334 10.0519 4.21775 12.7078 2.93477C15.0366 1.82159 18.0005 1.57631 20.5795 2.27441Z" fill="white"/>
<path d="M11.2643 9.23651C9.62842 9.80253 8.82009 11.3308 9.89787 11.8213C10.302 11.9912 10.4753 11.9534 11.1489 11.5006C12.1112 10.8402 12.6886 10.8402 13.5739 11.5006C14.2475 11.9912 14.3245 12.01 14.7864 11.7647C15.5947 11.3308 15.537 10.6138 14.6709 9.91574C13.9781 9.34971 12.958 8.9535 12.3036 8.9535C12.1497 8.97236 11.6878 9.08557 11.2643 9.23651Z" fill="white"/>
<path d="M21.4647 9.23645C20.5409 9.5572 19.6171 10.4062 19.6171 10.9345C19.6171 11.3685 20.156 11.9722 20.5601 11.9722C20.6948 11.9722 21.0798 11.7647 21.4262 11.5005C22.2345 10.8968 22.9659 10.8968 23.8897 11.5383C24.5248 11.9534 24.698 11.9911 25.1022 11.8213C26.1608 11.3496 25.4294 9.91568 23.8127 9.25532C22.9466 8.89684 22.4462 8.89684 21.4647 9.23645Z" fill="white"/>
<path d="M3.83532 19.0475C3.35417 19.6136 4.47044 27.1417 5.75993 32.0661C7.89625 40.2734 11.1489 45.7638 14.9403 47.5562C16.5185 48.3109 18.4816 48.3109 20.0598 47.5562C24.1208 45.6318 27.6235 39.33 29.7021 30.1416C30.472 26.7266 31.1263 22.5191 31.2033 20.4815C31.2803 18.7268 31.1071 18.5759 29.4904 18.9155C22.7928 20.3683 11.5915 20.4249 6.12561 19.0475C4.73989 18.6891 4.14326 18.6891 3.83532 19.0475ZM9.32047 21.538C12.6116 21.9909 22.4271 21.9909 25.6797 21.538C26.9692 21.3682 28.2972 21.1607 28.6436 21.1041L29.2787 20.972L29.144 22.0852C29.067 22.689 28.7976 24.4248 28.5474 25.9342C26.5843 37.3678 22.3886 45.5185 18.116 46.1978C17.0574 46.3487 15.5947 45.877 14.4592 45.0091C10.6485 42.0469 7.12641 32.651 5.85616 22.0852L5.72144 20.972L6.35656 21.1041C6.70299 21.1607 8.03098 21.3682 9.32047 21.538Z" fill="white"/>
<path d="M9.76287 24.2549C9.3587 24.4813 9.30096 25.3681 9.64739 25.7077C10.0131 26.0662 10.9176 25.9907 11.1486 25.5756C11.418 25.0473 11.3988 24.8587 10.9561 24.4247C10.5327 24.0096 10.244 23.9719 9.76287 24.2549Z" fill="white"/>
<path d="M13.7854 24.387C13.131 25.0851 13.4967 25.9341 14.4205 25.9341C15.3636 25.9341 15.7293 24.9719 15.0364 24.3681C14.5745 23.9531 14.1703 23.9719 13.7854 24.387Z" fill="white"/>
<path d="M17.8849 24.4247C17.4422 24.8587 17.4229 25.0473 17.6924 25.5756C17.9233 25.9907 18.8279 26.0662 19.1936 25.7077C19.5593 25.3492 19.4823 24.4625 19.0589 24.236C18.52 23.9719 18.3275 23.9908 17.8849 24.4247Z" fill="white"/>
<path d="M0.216989 22.3871C-0.129442 22.7267 -0.0717034 23.7078 0.467188 26.8021C1.66045 33.5943 3.33486 38.8584 5.70214 43.3299C6.91465 45.6129 7.31881 46.1223 7.93469 46.1223C8.97398 46.1223 9.10871 45.2355 8.26188 43.896C5.70214 39.8017 3.41185 32.8208 2.29557 25.6511C1.77593 22.3871 1.69894 22.1607 0.986834 22.1607C0.698142 22.1607 0.351712 22.255 0.216989 22.3871Z" fill="white"/>
<path d="M33.3203 22.4814C33.2241 22.6701 33.0316 23.5757 32.9161 24.5191C32.2618 29.085 30.9338 34.3868 29.5096 38.1414C28.7782 40.047 27.1615 43.3865 26.5264 44.2733C25.872 45.1601 26.1415 46.1223 27.0653 46.1223C27.6812 46.1223 28.0853 45.6129 29.2979 43.3299C31.6844 38.8395 33.3588 33.5189 34.5328 26.7455C35.0717 23.6323 35.1294 22.7267 34.783 22.3871C34.4366 22.0475 33.5128 22.1041 33.3203 22.4814Z" fill="white"/>
</svg>
