<svg width="11" height="19" viewBox="0 0 11 19" fill="none" xmlns="http://www.w3.org/2000/svg">
<path d="M10.4624 0.36C9.98244 -0.12 9.18244 -0.12 8.70244 0.36L0.292444 8.77C0.19974 8.86251 0.126193 8.9724 0.0760115 9.09338C0.02583 9.21435 0 9.34403 0 9.475C0 9.60597 0.02583 9.73565 0.0760115 9.85662C0.126193 9.9776 0.19974 10.0875 0.292444 10.18L8.70244 18.59C9.19244 19.08 9.98244 19.08 10.4724 18.59C10.9624 18.1 10.9624 17.31 10.4724 16.82L3.12244 9.48L10.4724 2.13C10.9524 1.64 10.9524 0.85 10.4624 0.36Z" fill="white"/>
</svg>
