<svg width="68" height="62" viewBox="0 0 68 62" fill="none" xmlns="http://www.w3.org/2000/svg">
  <path d="M51 41.7808C51 45.2161 48.2491 47.9705 44.8182 47.9705C41.3873 47.9705 38.6364 45.2161 38.6364 41.7808C38.6364 38.3455 41.4182 35.591 44.8182 35.591C48.2182 35.591 51 38.3764 51 41.7808ZM23.1818 35.591C19.7818 35.591 17 38.3764 17 41.7808C17 45.1851 19.7818 47.9705 23.1818 47.9705C26.5818 47.9705 29.3636 45.2161 29.3636 41.7808C29.3636 38.3455 26.6127 35.591 23.1818 35.591ZM68 40.2333V49.5179C68 51.2201 66.6091 52.6128 64.9091 52.6128H61.8182V55.7077C61.8182 59.143 59.0673 61.8974 55.6364 61.8974H12.3636C10.7241 61.8974 9.15175 61.2453 7.99243 60.0845C6.83312 58.9237 6.18182 57.3493 6.18182 55.7077V52.6128H3.09091C1.39091 52.6128 0 51.2201 0 49.5179V40.2333C0 38.5312 1.39091 37.1385 3.09091 37.1385H6.18182C6.18182 25.1613 15.8564 15.4744 27.8182 15.4744H30.9091V11.5439C29.0545 10.4916 27.8182 8.47995 27.8182 6.18974C27.8182 2.78538 30.6 0 34 0C37.4 0 40.1818 2.78538 40.1818 6.18974C40.1818 8.47995 38.9455 10.4916 37.0909 11.5439V15.4744H40.1818C52.1436 15.4744 61.8182 25.1613 61.8182 37.1385H64.9091C66.6091 37.1385 68 38.5312 68 40.2333ZM61.8182 43.3282H55.6364V37.1385C55.6364 28.5966 48.7127 21.6641 40.1818 21.6641H27.8182C19.2873 21.6641 12.3636 28.5966 12.3636 37.1385V43.3282H6.18182V46.4231H12.3636V55.7077H55.6364V46.4231H61.8182V43.3282Z" fill="#FF8976"/>
</svg>
