<svg width="50" height="50" viewBox="0 0 50 50" fill="none" xmlns="http://www.w3.org/2000/svg">
<path d="M11.9792 6.25C10.4597 6.25 9.00246 6.85361 7.92803 7.92803C6.85361 9.00246 6.25 10.4597 6.25 11.9792V38.0208C6.25 39.5403 6.85361 40.9975 7.92803 42.072C9.00246 43.1464 10.4597 43.75 11.9792 43.75H25.0458C24.4214 42.776 23.925 41.7257 23.5687 40.625H11.9792C10.5417 40.625 9.375 39.4583 9.375 38.0208V11.9792C9.375 10.5417 10.5417 9.375 11.9792 9.375H38.0208C39.4583 9.375 40.625 10.5417 40.625 11.9792V23.5687C41.7257 23.925 42.776 24.4214 43.75 25.0458V11.9792C43.75 10.4597 43.1464 9.00246 42.072 7.92803C40.9975 6.85361 39.5403 6.25 38.0208 6.25H11.9792Z" fill="#FF8976"/>
<path d="M37.4105 22.9499C37.5 22.7133 37.5306 22.4585 37.4997 22.2075C37.4689 21.9564 37.3775 21.7166 37.2333 21.5088C37.0892 21.3009 36.8967 21.1312 36.6725 21.0142C36.4482 20.8973 36.1988 20.8366 35.9459 20.8374H25.5209C25.1065 20.8374 24.709 21.002 24.416 21.2951C24.123 21.5881 23.9584 21.9855 23.9584 22.3999C23.9584 22.8143 24.123 23.2117 24.416 23.5048C24.709 23.7978 25.1065 23.9624 25.5209 23.9624H31.2334C33.1846 23.1456 35.3005 22.7988 37.4105 22.9499Z" fill="#FF8976"/>
<path d="M17.1875 17.7124C15.9443 17.7124 14.752 18.2063 13.8729 19.0853C12.9939 19.9644 12.5 21.1567 12.5 22.3999C12.5 23.6431 12.9939 24.8354 13.8729 25.7145C14.752 26.5935 15.9443 27.0874 17.1875 27.0874C18.4307 27.0874 19.623 26.5935 20.5021 25.7145C21.3811 24.8354 21.875 23.6431 21.875 22.3999C21.875 21.1567 21.3811 19.9644 20.5021 19.0853C19.623 18.2063 18.4307 17.7124 17.1875 17.7124ZM15.625 22.3999C15.625 21.9855 15.7896 21.5881 16.0826 21.295C16.3757 21.002 16.7731 20.8374 17.1875 20.8374C17.6019 20.8374 17.9993 21.002 18.2924 21.295C18.5854 21.5881 18.75 21.9855 18.75 22.3999C18.75 22.8143 18.5854 23.2117 18.2924 23.5048C17.9993 23.7978 17.6019 23.9624 17.1875 23.9624C16.7731 23.9624 16.3757 23.7978 16.0826 23.5048C15.7896 23.2117 15.625 22.8143 15.625 22.3999Z" fill="#FF8976"/>
<path d="M12.5 33.8541C12.5 33.2386 12.6212 32.629 12.8568 32.0603C13.0924 31.4916 13.4377 30.9748 13.8729 30.5396C14.3082 30.1043 14.825 29.759 15.3937 29.5234C15.9624 29.2879 16.5719 29.1666 17.1875 29.1666C17.8031 29.1666 18.4126 29.2879 18.9813 29.5234C19.55 29.759 20.0668 30.1043 20.5021 30.5396C20.9373 30.9748 21.2826 31.4916 21.5182 32.0603C21.7538 32.629 21.875 33.2386 21.875 33.8541C21.875 35.0973 21.3811 36.2896 20.5021 37.1687C19.623 38.0478 18.4307 38.5416 17.1875 38.5416C15.9443 38.5416 14.752 38.0478 13.8729 37.1687C12.9939 36.2896 12.5 35.0973 12.5 33.8541ZM17.1875 32.2916C16.7731 32.2916 16.3757 32.4562 16.0826 32.7493C15.7896 33.0423 15.625 33.4397 15.625 33.8541C15.625 34.2685 15.7896 34.666 16.0826 34.959C16.3757 35.252 16.7731 35.4166 17.1875 35.4166C17.6019 35.4166 17.9993 35.252 18.2924 34.959C18.5854 34.666 18.75 34.2685 18.75 33.8541C18.75 33.4397 18.5854 33.0423 18.2924 32.7493C17.9993 32.4562 17.6019 32.2916 17.1875 32.2916Z" fill="#FF8976"/>
<path d="M35.9458 15.625H14.0708C13.6564 15.625 13.259 15.4604 12.9659 15.1674C12.6729 14.8743 12.5083 14.4769 12.5083 14.0625C12.5083 13.6481 12.6729 13.2507 12.9659 12.9576C13.259 12.6646 13.6564 12.5 14.0708 12.5H35.9458C36.3602 12.5 36.7576 12.6646 37.0507 12.9576C37.3437 13.2507 37.5083 13.6481 37.5083 14.0625C37.5083 14.4769 37.3437 14.8743 37.0507 15.1674C36.7576 15.4604 36.3602 15.625 35.9458 15.625Z" fill="#FF8976"/>
<path d="M47.9167 36.4583C47.9167 33.4194 46.7094 30.5049 44.5606 28.3561C42.4117 26.2072 39.4973 25 36.4583 25C33.4194 25 30.5049 26.2072 28.3561 28.3561C26.2072 30.5049 25 33.4194 25 36.4583C25 39.4973 26.2072 42.4117 28.3561 44.5606C30.5049 46.7094 33.4194 47.9167 36.4583 47.9167C39.4973 47.9167 42.4117 46.7094 44.5606 44.5606C46.7094 42.4117 47.9167 39.4973 47.9167 36.4583ZM37.5021 42.7146C37.5021 42.9908 37.3923 43.2558 37.197 43.4512C37.0016 43.6465 36.7367 43.7562 36.4604 43.7562C36.1841 43.7562 35.9192 43.6465 35.7238 43.4512C35.5285 43.2558 35.4187 42.9908 35.4187 42.7146V37.5H30.2C29.9237 37.5 29.6588 37.3903 29.4634 37.1949C29.2681 36.9996 29.1583 36.7346 29.1583 36.4583C29.1583 36.1821 29.2681 35.9171 29.4634 35.7218C29.6588 35.5264 29.9237 35.4167 30.2 35.4167H35.4167V30.2083C35.4167 29.9321 35.5264 29.6671 35.7218 29.4718C35.9171 29.2764 36.1821 29.1667 36.4583 29.1667C36.7346 29.1667 36.9996 29.2764 37.1949 29.4718C37.3903 29.6671 37.5 29.9321 37.5 30.2083V35.4167H42.7146C42.9908 35.4167 43.2558 35.5264 43.4512 35.7218C43.6465 35.9171 43.7562 36.1821 43.7562 36.4583C43.7562 36.7346 43.6465 36.9996 43.4512 37.1949C43.2558 37.3903 42.9908 37.5 42.7146 37.5H37.5021V42.7146Z" fill="#FF8976"/>
</svg>
