<svg width="50" height="41" viewBox="0 0 50 41" fill="none" xmlns="http://www.w3.org/2000/svg">
<g clip-path="url(#clip0)">
<path d="M38.125 15.0815H26.25V19.4803C26.25 22.5987 23.7265 25.1359 20.625 25.1359C17.5234 25.1359 15 22.5987 15 19.4803V9.92868L9.92964 12.9921C8.42183 13.8954 7.49995 15.5371 7.49995 17.2966V21.012L1.24995 24.641C0.0546383 25.3323 -0.359424 26.8718 0.335888 28.0736L6.58589 38.9606C7.27339 40.1624 8.80464 40.5709 9.99995 39.8796L18.0781 35.1902H28.75C31.5078 35.1902 33.75 32.9359 33.75 30.163H35C36.3828 30.163 37.5 29.0398 37.5 27.6495V22.6223H38.125C39.164 22.6223 40 21.7818 40 20.7371V16.9667C40 15.922 39.164 15.0815 38.125 15.0815ZM49.664 12.1438L43.414 1.2568C42.7265 0.0549945 41.1953 -0.353463 40 0.337773L31.9218 5.02718H23.9375C23 5.02718 22.0859 5.29425 21.289 5.78911L18.6718 7.4308C17.9375 7.88639 17.5 8.69545 17.5 9.55949V19.4803C17.5 21.2163 18.8984 22.6223 20.625 22.6223C22.3515 22.6223 23.75 21.2163 23.75 19.4803V12.5679H38.125C40.539 12.5679 42.5 14.5395 42.5 16.9667V19.2054L48.75 15.5764C49.9453 14.8773 50.3515 13.3456 49.664 12.1438Z" fill="#FF8976"/>
</g>
<defs>
<clipPath id="clip0">
<rect width="50" height="40.2174" fill="white"/>
</clipPath>
</defs>
</svg>
